<svg id="traced_over_pollys" data-name="traced over pollys" xmlns="http://www.w3.org/2000/svg" viewBox="0 0 645.58 949.15"><defs><style>.cls-1{fill:#d1c1aa;}.cls-1,.cls-10,.cls-11,.cls-2,.cls-3,.cls-4,.cls-5,.cls-6,.cls-7,.cls-8,.cls-9{stroke:#000;stroke-miterlimit:10;}.cls-1,.cls-10,.cls-11,.cls-2,.cls-3,.cls-4,.cls-5,.cls-6,.cls-8,.cls-9{stroke-width:4px;}.cls-2{fill:#f1e5d5;}.cls-3{fill:#baac97;}.cls-4{fill:#decdb4;}.cls-5,.cls-7{fill:#c4b3a0;}.cls-6{fill:#b7a995;}.cls-8{fill:none;}.cls-9{fill:#514b42;}.cls-10{fill:#231f1e;}.cls-11{fill:#8c4d55;}</style></defs><title>dogLogo</title><path class="cls-1" d="M814.91,80.49,768,145l-11,97H744l-41-58,14-27,38-49,29-17,30.27-11.35A.55.55,0,0,1,814.91,80.49Z" transform="translate(-700.66 -72.93)"/><polygon class="cls-2" points="131.34 2.07 115.34 6.07 67.34 72.07 56.34 169.07 120.34 250.07 163.34 243.07 221.34 195.07 241.34 48.07 226.34 37.07 170.34 11.07 131.34 2.07"/><polygon class="cls-1" points="252.34 57.07 267.34 78.07 290.34 95.07 297.34 151.07 248.34 207.07 221.34 195.07 241.34 48.07 252.34 57.07"/><polygon class="cls-3" points="267.34 294.07 248.34 207.07 221.34 195.07 193.34 401.07 267.34 294.07"/><polygon class="cls-3" points="56.34 169.07 53.34 291.07 48.34 326.07 193.34 401.07 120.34 250.07 56.34 169.07"/><path class="cls-4" d="M722.12,511.59,734,472l15-73,145,75L722.42,511.91A.26.26,0,0,1,722.12,511.59Z" transform="translate(-700.66 -72.93)"/><path class="cls-2" d="M1082.23,529.48,968,367,894,474l187,57.1A1.06,1.06,0,0,0,1082.23,529.48Z" transform="translate(-700.66 -72.93)"/><path class="cls-1" d="M875,585,722.82,512.39a.31.31,0,0,1,.07-.59L894,474Z" transform="translate(-700.66 -72.93)"/><polygon class="cls-4" points="321.34 582.07 193.34 401.07 383.34 459.07 428.34 560.07 321.34 582.07"/><polygon class="cls-2" points="174.34 512.07 321.34 582.07 193.34 401.07 174.34 512.07"/><path class="cls-2" d="M722.13,512.38,786,705l72-15L722.24,512.32A.06.06,0,0,0,722.13,512.38Z" transform="translate(-700.66 -72.93)"/><path class="cls-2" d="M875,585,858,690,722.55,512.71a.21.21,0,0,1,.26-.32Z" transform="translate(-700.66 -72.93)"/><polygon class="cls-4" points="321.34 582.07 157.34 617.07 174.34 512.07 321.34 582.07"/><path class="cls-5" d="M786.61,706.36l206,173.46a.23.23,0,0,0,.34-.31L858,690l-70.93,14.58A1,1,0,0,0,786.61,706.36Z" transform="translate(-700.66 -72.93)"/><polygon class="cls-1" points="321.34 582.07 353.34 688.07 317.34 745.07 157.34 617.07 321.34 582.07"/><polygon class="cls-4" points="378.34 646.07 353.34 688.07 321.34 582.07 378.34 646.07"/><path class="cls-4" d="M1128.35,634.11,1079,719l-57-64,105.74-21.74A.57.57,0,0,1,1128.35,634.11Z" transform="translate(-700.66 -72.93)"/><path class="cls-6" d="M1015.46,820.69,1001,836l-7,45L858,690l157.12,125.69A3.41,3.41,0,0,1,1015.46,820.69Z" transform="translate(-700.66 -72.93)"/><path class="cls-6" d="M1054,761l52.44,170.18a.38.38,0,0,1-.65.35L1038,849l-20-31Z" transform="translate(-700.66 -72.93)"/><polygon class="cls-4" points="378.34 646.07 353.34 688.07 406.34 860.07 499.34 776.07 378.34 646.07"/><polygon class="cls-2" points="428.34 560.07 456.34 622.07 485.34 704.07 499.34 776.07 378.34 646.07 428.34 560.07"/><path class="cls-1" d="M1200,849l23,47,119.83-38.42a2,2,0,0,0-.56-4L1200,849" transform="translate(-700.66 -72.93)"/><polygon class="cls-2" points="512.34 871.07 522.34 823.07 406.34 860.07 388.34 879.07 406.34 918.07 455.34 908.07 512.34 871.07"/><polygon class="cls-1" points="223.27 749.07 219.34 870.07 208.34 892.07 208.34 931.07 247.34 947.07 293.34 938.07 287.34 907.07 293.34 808.07 223.27 749.07"/><polygon class="cls-2" points="84.34 632.07 97.34 676.07 117.34 770.07 121.34 830.07 102.34 856.07 74.34 865.07 52.34 892.07 67.34 913.07 148.34 905.07 157.34 882.07 174.34 838.07 177.34 710.38 84.34 632.07"/><polygon class="cls-7" points="163.34 243.07 120.34 250.07 193.34 401.07 221.34 195.07 163.34 243.07"/><path class="cls-8" d="M1070,859" transform="translate(-700.66 -72.93)"/><path class="cls-8" d="M1051,815" transform="translate(-700.66 -72.93)"/><path class="cls-8" d="M1106.44,931.18" transform="translate(-700.66 -72.93)"/><polygon class="cls-2" points="522.34 823.07 406.34 860.07 499.19 775.71 522.34 823.07"/><polygon class="cls-3" points="185.19 223.57 175.34 207.07 170.34 127.07 130.34 77.07 114.34 54.07 114.34 7.07 130.34 2.07 170.34 11.07 221.34 34.75 241.34 48.07 221.34 195.07 185.19 223.57"/><path class="cls-1" d="M820.79,322.74l-63.65-80.56a.54.54,0,0,1-.11-.41l11-96.62a.54.54,0,0,1,.11-.27L814,81.41a.57.57,0,0,1,1,.34v45.07a.64.64,0,0,0,.1.33L831,150l0,0,39.88,49.85a.6.6,0,0,1,.12.32l5,79.69a.61.61,0,0,0,.08.25l9.69,16.47a.57.57,0,0,1-.12.72L864.12,315.9a.66.66,0,0,1-.28.13L821.33,323A.59.59,0,0,1,820.79,322.74Z" transform="translate(-700.66 -72.93)"/><path class="cls-9" d="M772.45,142.36,805,158l26-8-18-23-40.54,15.18A.1.1,0,0,0,772.45,142.36Z" transform="translate(-700.66 -72.93)"/><path class="cls-9" d="M883.8,159.8l16.57,16.57a1.87,1.87,0,0,0,1.52.54l29.55-3a1.9,1.9,0,0,0,1.13-3.25L907,146a1.89,1.89,0,0,0-2.22-.31l-20.55,11.13A1.9,1.9,0,0,0,883.8,159.8Z" transform="translate(-700.66 -72.93)"/><polygon class="cls-10" points="140.34 154.07 165.34 146.07 170.34 127.07 155.34 112.07 127.34 112.07 118.34 124.07 120.34 142.07 127.34 154.07 140.34 154.07"/><path class="cls-11" d="M811.07,258.74a1,1,0,0,0-.71,1.3L819,285l4.77,14.32a1,1,0,0,0,1,.68h30.85a1,1,0,0,0,.73-.31l19-19.95a1,1,0,0,0-.07-1.4L855,261l-11.61-9.68a1,1,0,0,0-.88-.2Z" transform="translate(-700.66 -72.93)"/></svg>